# xmcd
#
# Track frame offsets: 
#        150
#        11691
#        28247
#        43167
#        56440
#        68617
#        81449
#        91514
#        104476
#        123800
#        139041
#        156092
#        169623
#        182781
#        201729
#        216086
#        233473
#        247561
#
# Disc length: 3468 seconds
#
# Revision: 3
# Processed by: cddbd v1.5.1PL2 Copyright (c) Steve Scherf et al.
# Submitted via: ExactAudioCopy v0.90b4
#
DISCID=e90d8a12
DTITLE=Various Artist - Classic Country Road Songs
DYEAR=2003
DGENRE=Country
TTITLE0=Willie Nelson - On The Road Again
TTITLE1=Alan Jackson - Mercury Blues
TTITLE2=Waylon Jennings - Luckenbach, Texas (Back To The Basics Of Lov
TTITLE2=e)
TTITLE3=Elvis Presley - Promised Land
TTITLE4=John Anderson - Chicken Truck
TTITLE5=Dwight Yoakam and Buck Owens - Streets Of Bakersfield
TTITLE6=Charlie Pride - (Is Anybody Going To San Antone)
TTITLE7=Asleep At The Wheel - Route 66
TTITLE8=Alabama - Roll On (Eighteen Wheeler)
TTITLE9=Kathy Mattea - Eighteen Wheels And A Dozen Roses
TTITLE10=Restless Heart - Wheels
TTITLE11=Oak Ridge Boys - Leaving Louisiana In The Broad Daylight
TTITLE12=Larry Gatlin and The Gatlin Brothers Band - Houston (Means I'm 
TTITLE12=One Day Closer To You)
TTITLE13=Ronnie Milsap - Prisoner Of The Highway
TTITLE14=Ricky Skaggs - Highway 40 Blues
TTITLE15=Dan Seals - Big Wheels In The Moonlight
TTITLE16=Don Williams - Tulsa Time
TTITLE17=Jerry Reed - East Bound And Down (From Smokey And The Bandit 
TTITLE17=OST)
EXTD=
EXTT0=
EXTT1=
EXTT2=
EXTT3=
EXTT4=
EXTT5=
EXTT6=
EXTT7=
EXTT8=
EXTT9=
EXTT10=
EXTT11=
EXTT12=
EXTT13=
EXTT14=
EXTT15=
EXTT16=
EXTT17=
PLAYORDER=
